<?xml version="1.0" standalone="no"?>
<!DOCTYPE svg PUBLIC "-//W3C//DTD SVG 20010904//EN"
 "http://www.w3.org/TR/2001/REC-SVG-20010904/DTD/svg10.dtd">
<svg version="1.0" xmlns="http://www.w3.org/2000/svg"
 width="512.000000pt" height="512.000000pt" viewBox="0 0 512.000000 512.000000"
 preserveAspectRatio="xMidYMid meet">
<metadata>
Created by potrace 1.11, written by Peter Selinger 2001-2013
</metadata>
<g transform="translate(0.000000,512.000000) scale(0.100000,-0.100000)"
fill="#000000" stroke="none">
<path d="M2378 5115 c-2 -1 -39 -5 -82 -9 -44 -4 -82 -9 -85 -11 -4 -2 -34 -7
-66 -10 -117 -14 -472 -111 -499 -136 -6 -5 -16 -9 -23 -9 -8 0 -49 -16 -91
-35 -352 -161 -618 -354 -877 -637 -33 -36 -71 -80 -85 -98 -14 -18 -29 -38
-35 -44 -82 -92 -246 -369 -323 -546 -61 -142 -131 -351 -146 -443 -3 -15 -7
-35 -10 -45 -3 -9 -7 -34 -11 -56 -3 -21 -7 -41 -9 -45 -4 -6 -12 -71 -26
-201 -12 -119 -4 -473 13 -590 58 -391 186 -725 397 -1043 113 -170 200 -277
327 -404 419 -418 963 -680 1538 -741 114 -12 512 -8 605 6 310 46 537 115
795 242 786 386 1323 1146 1419 2010 13 116 15 512 3 565 -3 11 -8 45 -11 75
-56 450 -270 930 -575 1292 -241 286 -493 484 -837 657 -67 34 -125 61 -129
61 -4 0 -21 6 -38 14 -137 62 -421 138 -607 162 -25 3 -56 8 -70 10 -27 6
-456 14 -462 9z"/>
</g>
</svg>
