<?xml version="1.0" standalone="no"?>
<!DOCTYPE svg PUBLIC "-//W3C//DTD SVG 20010904//EN"
 "http://www.w3.org/TR/2001/REC-SVG-20010904/DTD/svg10.dtd">
<svg version="1.0" xmlns="http://www.w3.org/2000/svg"
 width="150.000000pt" height="150.000000pt" viewBox="0 0 150.000000 150.000000"
 preserveAspectRatio="xMidYMid meet">
<metadata>
Created by potrace 1.13, written by Peter Selinger 2001-2015
</metadata>
<g transform="translate(0.000000,150.000000) scale(0.100000,-0.100000)"
fill="#000000" stroke="none">
<path d="M727 588 c-8 -13 -76 -135 -150 -271 l-136 -249 42 -18 c51 -22 190
-52 198 -42 3 4 12 65 19 137 7 72 19 177 26 235 13 102 13 99 8 -137 -4 -239
-4 -243 16 -243 20 0 20 4 16 243 -5 236 -5 239 8 137 7 -58 19 -163 26 -235
7 -72 16 -133 19 -137 8 -10 147 20 198 42 l42 18 -147 268 c-81 147 -152 269
-159 271 -6 2 -18 -6 -26 -19z"/>
</g>
</svg>
